# xmcd CD database file
#
# Track frame offsets:
#	150
#	16727
#	37625
#	59356
#	78224
#	100617
#	122677
#	142893
#	162099
#	180985
#
# Disc length: 2668 seconds
#
# Revision: 2
# Processed by: cddbd v1.5.2PL0 Copyright (c) Steve Scherf et al.
# Submitted via: CDex 1.70beta2
#
DISCID=620a6a0a
DTITLE=Various Artist - Ritz-Carlton's SimplySpa
DYEAR=2003
DGENRE=New Age
TTITLE0=Shaman's Call
TTITLE1=Fresh Wind **
TTITLE2=Surrender
TTITLE3=Centering **
TTITLE4=Grace **
TTITLE5=Wayfaring **
TTITLE6=In A Peaceful Valley **
TTITLE7=Thanksgiving
TTITLE8=Miles Ahead
TTITLE9=One Voice **
EXTD=YEAR: 2003
EXTT0=
EXTT1=
EXTT2=
EXTT3=
EXTT4=
EXTT5=
EXTT6=
EXTT7=
EXTT8=
EXTT9=
PLAYORDER=
